# xmcd
#
# Track frame offsets: 
#        150
#        11677
#        26660
#        41137
#        54773
#        70025
#        84980
#        99608
#        118286
#        135211
#        156748
#        172330
#        191566
#        208420
#        227375
#        246745
#        265571
#        284506
#
# Disc length: 4054 seconds
#
# Revision: 3
# Processed by: cddbd v1.5.2PL0 Copyright (c) Steve Scherf et al.
# Submitted via: ExactAudioCopy v0.99pb5
#
DISCID=080fd412
DTITLE=Muenchner Freiheit - Alle Jahre, alle Hits CD1
DYEAR=2010
DGENRE=Pop-Folk
TTITLE0=Muenchner Freiheit - Zeig Mir Die Nacht
TTITLE1=Muenchner Freiheit - Baby Blue
TTITLE2=Muenchner Freiheit - Ich Steh Auf Licht
TTITLE3=Muenchner Freiheit - Rumpelstilzchen
TTITLE4=Muenchner Freiheit - Oh Baby
TTITLE5=Muenchner Freiheit - SOS
TTITLE6=Muenchner Freiheit - Herzschlag Ist Der Takt
TTITLE7=Muenchner Freiheit - Ohne Dich (Schlaf Ich Heut' Nacht Nicht E
TTITLE7=In)
TTITLE8=Muenchner Freiheit - Tausendmal Du
TTITLE9=Muenchner Freiheit - Es Gibt Kein Naechstes Mal
TTITLE10=Muenchner Freiheit - Herz Aus Glas
TTITLE11=Muenchner Freiheit - So Lang' Man Traeume Noch Leben Kann
TTITLE12=Muenchner Freiheit - Bis Wir Uns Wiederseh'n
TTITLE13=Muenchner Freiheit - So Heiss
TTITLE14=Muenchner Freiheit - Diana
TTITLE15=Muenchner Freiheit - Verlieben Verlieren
TTITLE16=Muenchner Freiheit - Ich Will Dich Nochmal
TTITLE17=Muenchner Freiheit - Ihr Kommt Zu Spaet
EXTD=CD1
EXTT0=
EXTT1=
EXTT2=
EXTT3=
EXTT4=
EXTT5=
EXTT6=
EXTT7=
EXTT8=
EXTT9=
EXTT10=
EXTT11=
EXTT12=
EXTT13=
EXTT14=
EXTT15=
EXTT16=
EXTT17=
PLAYORDER=
